<svg xmlns="http://www.w3.org/2000/svg" width="26px" height="26px" viewBox="0 0 256 256">
    <g transform="translate(128 128) scale(0.72 0.72)" style="">
        <g style="stroke: none; stroke-width: 0; stroke-dasharray: none; stroke-linecap: butt; stroke-linejoin: miter; stroke-miterlimit: 10; fill: none; fill-rule: nonzero; opacity: 1;"
        transform="translate(-175.05 -175.05000000000004) scale(3.89 3.89)">
            <path
                d="M 62.887 0 H 27.114 C 12.163 0 0 12.163 0 27.114 v 35.773 C 0 77.837 12.163 90 27.114 90 h 35.773 C 77.837 90 90 77.837 90 62.887 V 27.114 C 90 12.163 77.837 0 62.887 0 z M 45 69.5 c -13.509 0 -24.5 -10.99 -24.5 -24.5 c 0 -13.509 10.991 -24.5 24.5 -24.5 c 13.51 0 24.5 10.991 24.5 24.5 C 69.5 58.51 58.51 69.5 45 69.5 z M 70.525 22.037 c -2.209 0 -4 -1.791 -4 -4 c 0 -2.209 1.791 -4 4 -4 c 2.209 0 4 1.791 4 4 C 74.525 20.246 72.734 22.037 70.525 22.037 z"
                style="stroke: none; stroke-width: 1; stroke-dasharray: none; stroke-linecap: butt; stroke-linejoin: miter; stroke-miterlimit: 10; fill: rgb(255,255,255); fill-rule: nonzero; opacity: 1;"
                transform=" matrix(1 0 0 1 0 0) " stroke-linecap="round" />
            <path
                d="M 45 25.5 c -10.752 0 -19.5 8.748 -19.5 19.5 c 0 10.753 8.748 19.5 19.5 19.5 c 10.753 0 19.5 -8.747 19.5 -19.5 C 64.5 34.248 55.753 25.5 45 25.5 z M 45 36.5 c -4.687 0 -8.5 3.813 -8.5 8.5 c 0 1.381 -1.119 2.5 -2.5 2.5 s -2.5 -1.119 -2.5 -2.5 c 0 -7.444 6.056 -13.5 13.5 -13.5 c 1.381 0 2.5 1.119 2.5 2.5 S 46.381 36.5 45 36.5 z"
                style="stroke: none; stroke-width: 1; stroke-dasharray: none; stroke-linecap: butt; stroke-linejoin: miter; stroke-miterlimit: 10; fill: rgb(255,255,255); fill-rule: nonzero; opacity: 1;"
                transform=" matrix(1 0 0 1 0 0) " stroke-linecap="round" />
        </g>
    </g>
</svg>