<svg role="img" width="180" height="43" viewBox="0 0 180 43" fill="none" xmlns="http://www.w3.org/2000/svg">
<path d="M21.6667 17.1909L43.3336 2.11019e-06L64.9999 17.1909L43.3336 34.3821L21.6667 17.1909" fill="white"/>
<path d="M0 17.191L21.6668 0.000105004L43.3336 17.191L21.6668 34.3822L0 17.191" fill="#3B557D"/>
<path d="M83.2646 25.0132L78.1191 40.7183H73.124L68 25.0132H72.7695L74.9072 32.9732C74.986 33.2739 75.0755 33.6607 75.1758 34.1333C75.2832 34.5988 75.3799 35.0643 75.4658 35.5298C75.5589 35.9953 75.6162 36.3749 75.6377 36.6685C75.6663 36.3749 75.7201 35.9989 75.7988 35.5405C75.8776 35.0822 75.9635 34.6239 76.0566 34.1655C76.1569 33.7 76.25 33.3169 76.3359 33.0161L78.5166 25.0132H83.2646ZM99.668 32.8443C99.668 34.0545 99.5212 35.1574 99.2275 36.1528C98.9411 37.1411 98.4899 37.9933 97.874 38.7095C97.2581 39.4256 96.4668 39.9771 95.5 40.3638C94.5332 40.7433 93.3766 40.9331 92.0303 40.9331C90.7126 40.9331 89.5703 40.7433 88.6035 40.3638C87.6439 39.9771 86.8525 39.4292 86.2295 38.7202C85.6064 38.0041 85.1445 37.1483 84.8438 36.1528C84.543 35.1574 84.3926 34.0474 84.3926 32.8228C84.3926 31.19 84.6611 29.772 85.1982 28.5689C85.7425 27.3586 86.5804 26.424 87.7119 25.7652C88.8434 25.0991 90.29 24.7661 92.0518 24.7661C93.8421 24.7661 95.2959 25.0991 96.4131 25.7652C97.5374 26.4312 98.361 27.3693 98.8838 28.5796C99.4066 29.7899 99.668 31.2114 99.668 32.8443ZM88.8613 32.8443C88.8613 33.7896 88.9688 34.6024 89.1836 35.2827C89.3984 35.9631 89.7386 36.4859 90.2041 36.8511C90.6696 37.2163 91.2783 37.3989 92.0303 37.3989C92.8109 37.3989 93.4303 37.2163 93.8887 36.8511C94.3542 36.4859 94.6872 35.9631 94.8877 35.2827C95.0954 34.6024 95.1992 33.7896 95.1992 32.8443C95.1992 31.4263 94.9629 30.3055 94.4902 29.4819C94.0176 28.6584 93.2048 28.2466 92.0518 28.2466C91.2855 28.2466 90.666 28.4328 90.1934 28.8052C89.7279 29.1776 89.3877 29.7075 89.1729 30.395C88.9652 31.0825 88.8613 31.8989 88.8613 32.8443ZM113.697 40.7183H101.462V38.0972L108.262 28.44H101.623V25.0132H113.525V27.6236L106.726 37.2915H113.697V40.7183ZM130.906 40.7183H125.342L119.605 29.6538H119.509C119.545 29.9904 119.577 30.395 119.605 30.8677C119.634 31.3403 119.659 31.8237 119.681 32.3179C119.702 32.8049 119.713 33.2453 119.713 33.6392V40.7183H115.953V25.0132H121.496L127.211 35.9273H127.275C127.254 35.5835 127.232 35.1861 127.211 34.7349C127.189 34.2765 127.168 33.8146 127.146 33.3491C127.132 32.8836 127.125 32.4719 127.125 32.1138V25.0132H130.906V40.7183ZM134.301 40.7183V25.0132H138.565V40.7183H134.301ZM155.323 25.0132V34.4663C155.323 35.784 155.073 36.9299 154.571 37.9038C154.07 38.8706 153.318 39.619 152.315 40.1489C151.313 40.6717 150.056 40.9331 148.545 40.9331C146.382 40.9331 144.731 40.3781 143.593 39.2681C142.454 38.1581 141.885 36.5897 141.885 34.563V25.0132H146.149V34.23C146.149 35.34 146.357 36.1457 146.772 36.647C147.188 37.1483 147.8 37.3989 148.609 37.3989C149.189 37.3989 149.662 37.2915 150.027 37.0767C150.393 36.8547 150.658 36.5073 150.822 36.0347C150.994 35.562 151.08 34.9533 151.08 34.2085V25.0132H155.323ZM172.038 40.7183H167.247L164.143 34.7134L162.886 35.4653V40.7183H158.621V25.0132H162.886V31.8345C163.065 31.4907 163.269 31.147 163.498 30.8032C163.734 30.4595 163.964 30.1336 164.186 29.8257L167.483 25.0132H172.124L167.172 32.0493L172.038 40.7183Z" fill="#3B557D"/>
</svg>
